<?xml version="1.0" encoding="utf-8"?>
<!-- Generator: Adobe Illustrator 16.0.4, SVG Export Plug-In . SVG Version: 6.00 Build 0)  -->
<!DOCTYPE svg PUBLIC "-//W3C//DTD SVG 1.1//EN" "http://www.w3.org/Graphics/SVG/1.1/DTD/svg11.dtd">
<svg version="1.1" id="Ebene_1" xmlns="http://www.w3.org/2000/svg" xmlns:xlink="http://www.w3.org/1999/xlink" x="0px" y="0px"
	 width="756.75px" height="801.984px" viewBox="0 -229.653 756.75 801.984" enable-background="new 0 -229.653 756.75 801.984"
	 xml:space="preserve">
<g>
	<g>
		
			<ellipse fill="#FFFFFF" stroke="#1D1D1B" stroke-width="5" stroke-miterlimit="10" cx="378.568" cy="177.689" rx="310.438" ry="310.645"/>
	</g>
	<g>
		<g>
			<g>
				<g>
					<defs>
						<rect id="SVGID_1_" x="-7.623" y="-256.296" width="793.823" height="828.628"/>
					</defs>
					<clipPath id="SVGID_2_">
						<use xlink:href="#SVGID_1_"  overflow="visible"/>
					</clipPath>
					<path clip-path="url(#SVGID_2_)" fill="none" stroke="#000000" stroke-width="1.5" stroke-miterlimit="10" d="M553.867-25.736
						c7.861,3.798,19.03,15.105,7.822,34.044c-8.488,14.329-18.498,17.051-25.169,14.259c-7.938-3.33-20.428-12.807-11.651-32.467
						C533.997-30.327,546.433-29.327,553.867-25.736z"/>
				</g>
			</g>
		</g>
	</g>
	<g>
		<g>
			<g>
				<g>
					<defs>
						<rect id="SVGID_3_" x="-7.623" y="-256.296" width="793.823" height="828.628"/>
					</defs>
					<clipPath id="SVGID_4_">
						<use xlink:href="#SVGID_3_"  overflow="visible"/>
					</clipPath>
					<path clip-path="url(#SVGID_4_)" fill="#D21A18" d="M568.508,182.258c0,105.861-85.773,191.707-191.583,191.707
						c-105.793,0-191.562-85.846-191.562-191.707c0-105.89,85.767-191.717,191.562-191.717
						C482.737-9.459,568.508,76.371,568.508,182.258"/>
				</g>
			</g>
		</g>
	</g>
	<g>
		<g>
			<g>
				<g>
					<defs>
						<rect id="SVGID_5_" x="-7.623" y="-256.296" width="793.823" height="828.628"/>
					</defs>
					<clipPath id="SVGID_6_">
						<use xlink:href="#SVGID_5_"  overflow="visible"/>
					</clipPath>
					<path clip-path="url(#SVGID_6_)" fill="none" stroke="#000000" stroke-width="3" stroke-miterlimit="10" d="M568.508,182.258
						c0,105.861-85.773,191.707-191.583,191.707c-105.793,0-191.562-85.846-191.562-191.707
						c0-105.89,85.767-191.717,191.562-191.717C482.737-9.459,568.508,76.371,568.508,182.258z"/>
				</g>
			</g>
		</g>
	</g>
	<g>
		<g>
			<g>
				<g>
					<defs>
						<rect id="SVGID_7_" x="-7.623" y="-256.296" width="793.823" height="828.628"/>
					</defs>
					<clipPath id="SVGID_8_">
						<use xlink:href="#SVGID_7_"  overflow="visible"/>
					</clipPath>
					<path clip-path="url(#SVGID_8_)" d="M295.698-43.882l11.023-3.947c1.635,3.623,3.715,6.065,6.243,7.317
						c2.531,1.261,5.559,1.441,9.095,0.552c3.73-0.943,6.353-2.45,7.854-4.507c1.493-2.064,1.975-4.154,1.443-6.275
						c-0.339-1.357-1.038-2.417-2.072-3.172c-1.036-0.755-2.645-1.235-4.805-1.439c-1.483-0.131-4.793-0.183-9.936-0.17
						c-6.609,0.025-11.465-0.772-14.535-2.391c-4.333-2.274-7.069-5.695-8.217-10.247c-0.74-2.935-0.604-5.882,0.422-8.854
						c1.014-2.969,2.917-5.521,5.704-7.638c2.791-2.123,6.396-3.743,10.817-4.855c7.221-1.82,13.053-1.608,17.496,0.641
						c4.451,2.247,7.43,5.994,8.943,11.233l-11.483,3.442c-1.247-2.837-2.846-4.693-4.807-5.58c-1.962-0.88-4.576-0.906-7.845-0.084
						c-3.378,0.849-5.844,2.209-7.397,4.073c-1.005,1.205-1.322,2.547-0.947,4.039c0.345,1.362,1.215,2.38,2.607,3.062
						c1.771,0.861,5.656,1.246,11.643,1.155c5.983-0.089,10.514,0.237,13.576,0.985c3.07,0.743,5.682,2.156,7.832,4.246
						c2.151,2.09,3.686,4.955,4.602,8.59c0.83,3.301,0.696,6.617-0.406,9.958c-1.105,3.342-3.156,6.134-6.154,8.383
						c-2.995,2.24-6.989,3.992-11.982,5.25c-7.274,1.836-13.282,1.557-18.025-0.82C301.644-33.32,298.075-37.636,295.698-43.882"/>
				</g>
			</g>
		</g>
	</g>
	<g>
		<g>
			<g>
				<g>
					<defs>
						<rect id="SVGID_9_" x="-7.623" y="-256.296" width="793.823" height="828.628"/>
					</defs>
					<clipPath id="SVGID_10_">
						<use xlink:href="#SVGID_9_"  overflow="visible"/>
					</clipPath>
					<polygon clip-path="url(#SVGID_10_)" points="211.982,36.636 194.469,21.17 156.92,15.13 165.612,5.285 190.717,10.036 
						182.713,-14.087 191.256,-23.76 201.913,12.856 219.367,28.273 					"/>
				</g>
			</g>
		</g>
	</g>
	<g>
		<g>
			<g>
				<g>
					<defs>
						<rect id="SVGID_11_" x="-7.623" y="-256.296" width="793.823" height="828.628"/>
					</defs>
					<clipPath id="SVGID_12_">
						<use xlink:href="#SVGID_11_"  overflow="visible"/>
					</clipPath>
					<path clip-path="url(#SVGID_12_)" d="M226.856-12.387c-3.687-4.787-6.062-9.363-7.135-13.716
						c-0.775-3.218-0.965-6.496-0.581-9.822c0.386-3.326,1.324-6.298,2.818-8.908c1.979-3.494,4.877-6.712,8.699-9.653
						c6.935-5.328,14.133-7.438,21.595-6.337c7.465,1.102,14.143,5.484,20.037,13.143c5.844,7.599,8.348,15.127,7.521,22.589
						c-0.825,7.462-4.696,13.854-11.603,19.164c-6.992,5.375-14.196,7.516-21.604,6.422C239.193-0.602,232.612-4.897,226.856-12.387
						 M236.391-20.226c4.095,5.327,8.427,8.419,13.001,9.279c4.574,0.855,8.752-0.17,12.537-3.081
						c3.782-2.911,5.84-6.663,6.171-11.259c0.326-4.593-1.604-9.616-5.804-15.071c-4.146-5.393-8.42-8.511-12.826-9.346
						c-4.405-0.836-8.56,0.248-12.472,3.258c-3.917,3.008-6.039,6.778-6.367,11.299C230.309-30.614,232.226-25.637,236.391-20.226"
						/>
				</g>
			</g>
		</g>
	</g>
	<g>
		<g>
			<g>
				<g>
					<defs>
						<rect id="SVGID_13_" x="-7.623" y="-256.296" width="793.823" height="828.628"/>
					</defs>
					<clipPath id="SVGID_14_">
						<use xlink:href="#SVGID_13_"  overflow="visible"/>
					</clipPath>
					<polygon clip-path="url(#SVGID_14_)" points="360.73,-38.858 361.902,-98.201 373.874,-97.968 373.414,-74.612 
						396.872,-74.146 397.34,-97.502 409.312,-97.265 408.135,-37.918 396.161,-38.156 396.673,-64.106 373.216,-64.571 
						372.7,-38.621 					"/>
				</g>
			</g>
		</g>
	</g>
	<g>
		<g>
			
				<rect x="410.076" y="-65.245" transform="matrix(-0.2498 0.9683 -0.9683 -0.2498 491.0395 -499.2812)" width="57.708" height="11.643"/>
		</g>
	</g>
	<g>
		<g>
			<g>
				<g>
					<defs>
						<rect id="SVGID_15_" x="-7.623" y="-256.296" width="793.823" height="828.628"/>
					</defs>
					<clipPath id="SVGID_16_">
						<use xlink:href="#SVGID_15_"  overflow="visible"/>
					</clipPath>
					<polygon clip-path="url(#SVGID_16_)" points="455.098,-25.173 480.168,-77.738 490.49,-72.815 495.247,-27.459 
						511.987,-62.558 521.835,-57.858 496.767,-5.295 486.12,-10.371 481.299,-54.747 464.949,-20.472 					"/>
				</g>
			</g>
		</g>
	</g>
	<g>
		<g>
			<g>
				<g>
					<defs>
						<rect id="SVGID_17_" x="-7.623" y="-256.296" width="793.823" height="828.628"/>
					</defs>
					<clipPath id="SVGID_18_">
						<use xlink:href="#SVGID_17_"  overflow="visible"/>
					</clipPath>
					<path clip-path="url(#SVGID_18_)" d="M524.764-13.354c2.833-4.814,5.93-8.431,9.281-10.851c2.48-1.771,5.23-3.065,8.203-3.884
						c2.977-0.822,5.854-1.041,8.607-0.666c3.673,0.484,7.425,1.856,11.271,4.117c6.952,4.092,11.25,9.521,12.883,16.3
						c1.634,6.771,0.187,14-4.334,21.689c-4.486,7.623-10.073,12.372-16.747,14.241c-6.674,1.867-13.474,0.766-20.403-3.315
						c-7.026-4.13-11.341-9.555-12.961-16.273C518.94,1.278,520.342-5.844,524.764-13.354 M534.775-7.905
						c-3.149,5.35-4.295,10.133-3.452,14.342c0.848,4.21,3.169,7.429,6.962,9.671c3.8,2.229,7.723,2.694,11.771,1.392
						c4.05-1.306,7.684-4.696,10.903-10.174c3.188-5.41,4.381-10.148,3.573-14.205c-0.808-4.058-3.179-7.243-7.102-9.555
						c-3.925-2.312-7.886-2.826-11.872-1.547C541.568-16.689,537.973-13.339,534.775-7.905"/>
				</g>
			</g>
		</g>
	</g>
	<g>
		<g>
			<g>
				<g>
					<defs>
						<rect id="SVGID_19_" x="-7.623" y="-256.296" width="793.823" height="828.628"/>
					</defs>
					<clipPath id="SVGID_20_">
						<use xlink:href="#SVGID_19_"  overflow="visible"/>
					</clipPath>
					<path clip-path="url(#SVGID_20_)" fill="none" stroke="#000000" stroke-width="7" stroke-miterlimit="10" d="M149.154,165.18
						c6.737-0.074,15.829,5.314,16.313,21.025c0.485,15.71-7.201,21.729-14.137,22.112c-7.322,0.405-18.126-5.491-17.162-21.564
						C135.138,170.682,142.452,165.253,149.154,165.18z"/>
				</g>
			</g>
		</g>
	</g>
	<g>
		<g>
			<g>
				<g>
					<defs>
						<rect id="SVGID_21_" x="-7.623" y="-256.296" width="793.823" height="828.628"/>
					</defs>
					<clipPath id="SVGID_22_">
						<use xlink:href="#SVGID_21_"  overflow="visible"/>
					</clipPath>
					<path clip-path="url(#SVGID_22_)" fill="none" stroke="#000000" stroke-width="2.7" stroke-miterlimit="10" d="M609.094,146.78
						c0,0,1.723,33.355,0.498,40.811c-0.979,5.981-17.506,11.688-16.985-9.603"/>
				</g>
			</g>
		</g>
	</g>
	<g>
		<g>
			<g>
				<g>
					<defs>
						<rect id="SVGID_23_" x="-7.623" y="-256.296" width="793.823" height="828.628"/>
					</defs>
					<clipPath id="SVGID_24_">
						<use xlink:href="#SVGID_23_"  overflow="visible"/>
					</clipPath>
					<path clip-path="url(#SVGID_24_)" fill="none" stroke="#000000" stroke-width="7" stroke-miterlimit="10" d="M640.254,148.345
						c6.73-0.08,15.823,5.888,16.312,23.284c0.474,17.396-7.207,24.062-14.139,24.486c-7.328,0.45-18.126-6.081-17.162-23.878
						C626.233,154.442,633.549,148.429,640.254,148.345z"/>
				</g>
			</g>
		</g>
	</g>
	<g>
		<g>
			<g>
				<g>
					<defs>
						<rect id="SVGID_25_" x="-7.623" y="-256.296" width="793.823" height="828.628"/>
					</defs>
					<clipPath id="SVGID_26_">
						<use xlink:href="#SVGID_25_"  overflow="visible"/>
					</clipPath>
					<path clip-path="url(#SVGID_26_)" d="M187.761,348.68l8,7.225c-2.231,2.904-3.302,5.657-3.216,8.259
						c0.077,2.602,1.255,5.141,3.509,7.618c2.396,2.624,4.757,4.096,7.076,4.415c2.33,0.316,4.234-0.202,5.725-1.561
						c0.958-0.871,1.514-1.894,1.672-3.068c0.162-1.165-0.147-2.679-0.924-4.526c-0.541-1.261-1.935-3.971-4.187-8.139
						c-2.901-5.358-4.362-9.638-4.389-12.842c-0.041-4.505,1.542-8.213,4.74-11.132c2.057-1.873,4.511-3.049,7.369-3.513
						c2.856-0.473,5.748-0.036,8.687,1.307c2.938,1.341,5.817,3.561,8.65,6.661c4.618,5.063,6.981,9.894,7.093,14.481
						c0.11,4.592-1.628,8.642-5.222,12.149l-7.791-7.819c1.752-2.245,2.569-4.355,2.432-6.334c-0.139-1.979-1.256-4.116-3.344-6.41
						c-2.162-2.361-4.34-3.776-6.535-4.229c-1.41-0.298-2.639,0.039-3.686,0.997c-0.954,0.871-1.404,2.019-1.354,3.442
						c0.076,1.816,1.448,5.135,4.134,9.959c2.678,4.813,4.381,8.636,5.113,11.444c0.729,2.815,0.718,5.548-0.036,8.206
						c-0.765,2.654-2.414,5.147-4.973,7.477c-2.312,2.117-5.069,3.447-8.26,4.004c-3.193,0.555-6.349,0.11-9.479-1.346
						c-3.132-1.456-6.29-3.927-9.488-7.43c-4.653-5.108-7.048-10.103-7.181-14.993C181.775,358.102,183.726,353.335,187.761,348.68"
						/>
				</g>
			</g>
		</g>
	</g>
	<g>
		<g>
			<g>
				<g>
					<defs>
						<rect id="SVGID_27_" x="-7.623" y="-256.296" width="793.823" height="828.628"/>
					</defs>
					<clipPath id="SVGID_28_">
						<use xlink:href="#SVGID_27_"  overflow="visible"/>
					</clipPath>
					<path clip-path="url(#SVGID_28_)" d="M263.755,398.482l-8.272-4.324c0.665-1.987-0.76-5.14-1.353-6.637
						c-0.598-1.506-2.506-2.468-4.241-3.391c-2.301-1.238-4.557-1.421-6.779-0.562c-2.219,0.861-4.326,3.147-6.318,6.872
						c-2.216,4.15-3.087,7.439-2.613,9.896c0.478,2.461,1.889,4.306,4.23,5.562c1.75,0.938,3.457,1.207,5.11,0.807
						c1.649-0.396,2.831-1.062,4.591-3.247l8.767,5.764c-3.17,3.667-6.656,5.844-10.475,6.535c-3.803,0.7-7.952-0.159-12.444-2.558
						c-5.105-2.729-8.312-6.52-9.623-11.365c-1.307-4.843-0.438-10.116,2.606-15.818c3.089-5.766,7.012-9.438,11.777-11.021
						c4.763-1.589,9.734-0.991,14.929,1.79c4.255,2.272,8.469,5.836,9.999,9.001C265.175,388.973,264.66,394.155,263.755,398.482"/>
				</g>
			</g>
		</g>
	</g>
	<g>
		<g>
			<g>
				<g>
					<defs>
						<rect id="SVGID_29_" x="-7.623" y="-256.296" width="793.823" height="828.628"/>
					</defs>
					<clipPath id="SVGID_30_">
						<use xlink:href="#SVGID_29_"  overflow="visible"/>
					</clipPath>
					<path clip-path="url(#SVGID_30_)" d="M291.813,377.866l-5.558,17.656c4.767-2.292,8.378-1.907,12.854-0.501
						c2.294,0.726,4.236,1.806,5.817,3.24c1.576,1.436,2.62,2.964,3.144,4.586c0.519,1.625,0.692,3.296,0.535,5.016
						c-0.167,1.725-0.786,4.279-1.855,7.667l-6.976,22.165l-9.985-3.145l6.285-19.955c1.247-3.962,1.845-6.537,1.803-7.724
						c-0.044-1.187-0.438-2.239-1.207-3.177c-0.761-0.929-1.868-1.629-3.313-2.085c-1.659-0.521-3.263-0.582-4.825-0.184
						c-1.554,0.397-2.889,1.313-4.012,2.738c-1.104,1.438-2.167,3.743-3.168,6.922l-5.963,18.924l-9.984-3.145l16.425-52.146
						L291.813,377.866z"/>
				</g>
			</g>
		</g>
	</g>
	<g>
		<g>
			<g>
				<g>
					<defs>
						<rect id="SVGID_31_" x="-7.623" y="-256.296" width="793.823" height="828.628"/>
					</defs>
					<clipPath id="SVGID_32_">
						<use xlink:href="#SVGID_31_"  overflow="visible"/>
					</clipPath>
					<path clip-path="url(#SVGID_32_)" d="M328.606,418.48l-9.597-2.962c1.58-3.812,3.834-6.517,6.758-8.083
						c2.918-1.572,7.033-2.037,12.341-1.392c4.82,0.584,8.341,1.594,10.565,3.021c2.22,1.426,3.7,3.076,4.458,4.949
						c0.74,1.874,0.838,5.16,0.265,9.854l-1.641,12.614c-0.438,3.592-0.582,6.263-0.441,8.01c0.136,1.755,0.56,3.655,1.271,5.721
						l-10.69-1.292c-0.193-0.754-0.413-1.86-0.654-3.32c-0.101-0.665-0.18-1.104-0.229-1.319c-2.061,1.576-4.195,2.684-6.412,3.327
						c-2.208,0.646-4.51,0.818-6.892,0.533c-4.2-0.513-7.384-2.051-9.531-4.633c-2.139-2.579-2.999-5.614-2.581-9.103
						c0.28-2.313,1.079-4.296,2.404-5.979c1.318-1.673,3.028-2.87,5.136-3.591c2.102-0.725,5.068-1.217,8.898-1.483
						c5.168-0.339,8.773-0.798,10.825-1.385l0.128-1.076c0.249-2.076-0.081-3.625-1.003-4.635c-0.916-1.012-2.8-1.69-5.644-2.026
						c-1.919-0.235-3.466-0.041-4.637,0.585C330.534,415.446,329.504,416.663,328.606,418.48 M342.005,429.01
						c-1.442,0.296-3.704,0.577-6.781,0.859c-3.078,0.28-5.114,0.667-6.113,1.171c-1.527,0.83-2.388,2.014-2.573,3.558
						c-0.186,1.514,0.217,2.893,1.217,4.13c0.993,1.245,2.358,1.967,4.104,2.179c1.946,0.233,3.888-0.178,5.814-1.25
						c1.426-0.812,2.423-1.903,3.008-3.269c0.392-0.891,0.746-2.629,1.059-5.223L342.005,429.01z"/>
				</g>
			</g>
		</g>
	</g>
	<g>
		<g>
			<g>
				<g>
					<defs>
						<rect id="SVGID_33_" x="-7.623" y="-256.296" width="793.823" height="828.628"/>
					</defs>
					<clipPath id="SVGID_34_">
						<use xlink:href="#SVGID_33_"  overflow="visible"/>
					</clipPath>
					<path clip-path="url(#SVGID_34_)" d="M377.263,423.826c-0.52,2.182-0.657,6.709-0.404,13.577l0.457,12.483l-10.689,0.392
						l-1.466-40.401l9.921-0.36l0.135,3.687l0.076,2.051"/>
				</g>
			</g>
		</g>
	</g>
	<g>
		<g>
			<g>
				<g>
					<defs>
						<rect id="SVGID_35_" x="-7.623" y="-256.296" width="793.823" height="828.628"/>
					</defs>
					<clipPath id="SVGID_36_">
						<use xlink:href="#SVGID_35_"  overflow="visible"/>
					</clipPath>
					<path clip-path="url(#SVGID_36_)" d="M376.992,424.1c0.496-4.153,11.596-5.896,11.596-5.896c1.428-1.988,0-9.57,0-9.57
						c-6.521-1.178-12.258,5.098-12.258,5.098l-1.471,0.296"/>
				</g>
			</g>
		</g>
	</g>
	<g>
		<g>
			<g>
				<g>
					<defs>
						<rect id="SVGID_37_" x="-7.623" y="-256.296" width="793.823" height="828.628"/>
					</defs>
					<clipPath id="SVGID_38_">
						<use xlink:href="#SVGID_37_"  overflow="visible"/>
					</clipPath>
					<path clip-path="url(#SVGID_38_)" d="M404.661,450.787l-9.589-53.827l10.32-1.839l3.445,19.395
						c2.539-4.19,5.979-6.672,10.333-7.448c4.749-0.841,8.972,0.18,12.694,3.064c3.719,2.885,6.153,7.551,7.297,13.985
						c1.186,6.658,0.521,12.064-2,16.23c-2.529,4.165-6.061,6.648-10.583,7.452c-2.226,0.397-4.521,0.225-6.887-0.5
						c-2.355-0.734-4.521-2.043-6.465-3.938l1.015,5.729L404.661,450.787z M411.279,428.624c0.72,4.041,1.882,6.915,3.503,8.625
						c2.271,2.427,4.893,3.369,7.852,2.84c2.271-0.41,4.041-1.725,5.296-3.952c1.259-2.234,1.512-5.441,0.769-9.623
						c-0.793-4.455-2.17-7.523-4.137-9.208c-1.968-1.686-4.212-2.303-6.728-1.855c-2.476,0.438-4.353,1.766-5.65,3.981
						C410.884,421.644,410.582,424.709,411.279,428.624"/>
				</g>
			</g>
		</g>
	</g>
	<g>
		<g>
			<g>
				<g>
					<defs>
						<rect id="SVGID_39_" x="-7.623" y="-256.296" width="793.823" height="828.628"/>
					</defs>
					<clipPath id="SVGID_40_">
						<use xlink:href="#SVGID_39_"  overflow="visible"/>
					</clipPath>
					<path clip-path="url(#SVGID_40_)" d="M476.006,419.421l10.438-1.698c-0.039,4.056-1.108,7.499-3.201,10.328
						c-2.104,2.827-5.206,4.936-9.321,6.334c-6.521,2.219-12.062,1.725-16.638-1.482c-3.631-2.575-6.33-6.462-8.094-11.661
						c-2.112-6.222-2.137-11.64-0.085-16.257c2.051-4.624,5.559-7.773,10.519-9.46c5.583-1.887,10.604-1.542,15.078,1.051
						c4.474,2.59,7.932,7.702,10.372,15.36l-24.847,8.428c1.072,2.928,2.649,4.942,4.736,6.061c2.086,1.119,4.267,1.287,6.549,0.517
						c1.551-0.532,2.719-1.394,3.486-2.604C475.768,423.116,476.103,421.483,476.006,419.421 M473.161,409.196
						c-1.042-2.85-2.524-4.78-4.439-5.794c-1.921-1.022-3.896-1.188-5.922-0.501c-2.159,0.737-3.688,2.134-4.555,4.188
						c-0.875,2.054-0.843,4.431,0.101,7.134L473.161,409.196z"/>
				</g>
			</g>
		</g>
	</g>
</g>
<g enable-background="new    ">
	<path d="M527.866,407.344l-3.125-5.125c-0.128,2.59-0.887,5.021-2.275,7.31c-1.383,2.288-3.201,4.124-5.457,5.495
		c-2.3,1.403-4.663,2.153-7.104,2.258c-2.44,0.098-4.618-0.515-6.557-1.841c-1.922-1.33-3.87-3.603-5.834-6.824l-13.199-21.646
		l9.045-5.513l9.585,15.719c2.931,4.809,4.894,7.655,5.889,8.539c0.992,0.877,2.12,1.37,3.388,1.464
		c1.269,0.097,2.575-0.271,3.923-1.091c1.55-0.938,2.671-2.211,3.38-3.803c0.707-1.595,0.903-3.157,0.589-4.684
		c-0.318-1.533-1.971-4.75-4.953-9.643l-8.799-14.429l9.044-5.514l20.857,34.2L527.866,407.344z"/>
</g>
<g>
	<g>
		<g>
			<g>
				<g>
					<defs>
						<rect id="SVGID_41_" x="-7.623" y="-256.296" width="793.823" height="828.628"/>
					</defs>
					<clipPath id="SVGID_42_">
						<use xlink:href="#SVGID_41_"  overflow="visible"/>
					</clipPath>
					<path clip-path="url(#SVGID_42_)" d="M540.078,349.433l5.212,6.527l-5.598,4.464l9.965,12.479
						c2.009,2.526,3.246,3.949,3.688,4.286c0.437,0.329,0.953,0.48,1.543,0.448c0.6-0.027,1.174-0.266,1.712-0.688
						c0.765-0.606,2.018-0.682,3.037-2.354l4.665,5.974c-1.249,2.338-2.35,3.22-4.758,5.143c-1.477,1.182-2.998,1.993-4.578,2.444
						c-1.582,0.451-2.963,0.504-4.15,0.159c-1.175-0.346-2.41-1.104-3.689-2.275c-0.938-0.807-2.562-2.665-4.87-5.562l-10.774-13.49
						l-3.756,2.996l-5.217-6.53l3.755-2.994l-6.868-8.697l7.974-6.77l7.108,8.907L540.078,349.433z"/>
				</g>
			</g>
		</g>
	</g>
	<g>
		<g>
			<g>
				<g>
					<defs>
						<rect id="SVGID_43_" x="-7.623" y="-256.296" width="793.823" height="828.628"/>
					</defs>
					<clipPath id="SVGID_44_">
						<use xlink:href="#SVGID_43_"  overflow="visible"/>
					</clipPath>
					<path clip-path="url(#SVGID_44_)" d="M573.312,373.19l-6.086-5.458l-2.776-22.419c-0.435-3.675-0.707-6.337-0.792-7.983
						c-0.762,0.957-1.793,2.186-3.105,3.677l-9.274,10.451l-6.466-5.801l21.856-24.348l5.515,4.954l2.877,22.921l0.749,7.825
						c1.812-2.281,2.958-3.682,3.416-4.195l10.824-12.063l6.859,6.155L573.312,373.19z"/>
				</g>
			</g>
		</g>
	</g>
	<g>
		<g>
			<g>
				<g>
					<defs>
						<rect id="SVGID_45_" x="-7.623" y="-256.296" width="793.823" height="828.628"/>
					</defs>
					<clipPath id="SVGID_46_">
						<use xlink:href="#SVGID_45_"  overflow="visible"/>
					</clipPath>
					<path clip-path="url(#SVGID_46_)" d="M316.574,50.923c0,0,1.451-3.264,18.127-3.987c16.675-0.726,11.963,0.363,24.836-1.812
						c12.864-2.177,11.229-6.345,11.229-6.345s0.185-5.203-8.15-10.308c-8.337-5.103-8.703-7.64-8.88-8.728
						c-0.184-1.087,1.344-10.692,24.872-3.441c0,0,8.355,2.536,10.676,17.766c0,0,2.334,7.792,22.632,10.146
						c13.407,1.557,21.03,1.632,24.836,3.267c2.177,0.929,4.018,0.336,5.619,1.626c4.71,3.807,10.147,23.384,0,28.277
						c-10.148,4.896-10.877-1.09-7.432-12.688c3.442-11.602-22.657-10.515-46.768-11.602c0,0-48.118,3.338-55.466,5.438
						C326.364,60.346,310.592,55.091,316.574,50.923"/>
				</g>
			</g>
		</g>
	</g>
	<g>
		<g>
			<g>
				<g>
					<defs>
						<rect id="SVGID_47_" x="-7.623" y="-256.296" width="793.823" height="828.628"/>
					</defs>
					<clipPath id="SVGID_48_">
						<use xlink:href="#SVGID_47_"  overflow="visible"/>
					</clipPath>
					<path clip-path="url(#SVGID_48_)" d="M312.403,61.62l13.539,11.962c0,0,2.537,21.028-23.445,32.389h-5.18
						c0,0-2.588-14.442-1.402-16.663c1.176-2.224,4.256-10.831,7.431-14.456c0,0,4.98-11.237,6.523-12.598
						C311.406,60.895,312.403,61.62,312.403,61.62"/>
				</g>
			</g>
		</g>
	</g>
	<g>
		<g>
			<g>
				<g>
					<defs>
						<rect id="SVGID_49_" x="-7.623" y="-256.296" width="793.823" height="828.628"/>
					</defs>
					<clipPath id="SVGID_50_">
						<use xlink:href="#SVGID_49_"  overflow="visible"/>
					</clipPath>
					<path clip-path="url(#SVGID_50_)" d="M351.194,70.319l-3.08,1.511c2.179-1.034-26.694,31.63-29.901,36.553
						c-6.167,9.426,17.575,1.812,20.299-0.904c0.416-0.424,30.934-13.598,29.901-13.234
						C368.409,94.244,366.599,74.67,351.194,70.319"/>
				</g>
			</g>
		</g>
	</g>
	<g>
		<g>
			<g>
				<g>
					<defs>
						<rect id="SVGID_51_" x="-7.623" y="-256.296" width="793.823" height="828.628"/>
					</defs>
					<clipPath id="SVGID_52_">
						<use xlink:href="#SVGID_51_"  overflow="visible"/>
					</clipPath>
					<path clip-path="url(#SVGID_52_)" d="M398.446,71.53c0,0,5.312,1.329,7.486,0.965c2.176-0.362,20.664,5.643,22.479,11.12
						c1.815,5.471,4.35,9.906,3.988,10.995c-0.364,1.085,3.149,9.422-5.438,9.423c-3.624,0-27.914-23.439-27.914-23.439
						S389.283,73.219,398.446,71.53"/>
				</g>
			</g>
		</g>
	</g>
	<g>
		<g>
			<g>
				<g>
					<defs>
						<rect id="SVGID_53_" x="-7.623" y="-256.296" width="793.823" height="828.628"/>
					</defs>
					<clipPath id="SVGID_54_">
						<use xlink:href="#SVGID_53_"  overflow="visible"/>
					</clipPath>
					<path clip-path="url(#SVGID_54_)" d="M361.585,101.857c0,0,36.919,1.27,43.022,1.211c6.898-0.07-12.991,12.567-0.303,27.609
						c0,0,42.231,5.438,52.562,11.057c0,0,3.535,4.623-10.425,12.777c0,0-3.031,0.199-8.522-1.45
						c-7.513-2.255-19.574-7.793-35.973-10.238c-33.271-4.962-85.26,26.481-96.067,29.18c-5.8,1.449-7.07-13.05-7.07-13.05
						c30.838-18.574,31.723-16.854,70.873-34.803c0,0,9.79-10.236-13.599-11.188C356.088,112.963,358.024,105.845,361.585,101.857"
						/>
				</g>
			</g>
		</g>
	</g>
	<g>
		<g>
			<g>
				<g>
					<defs>
						<rect id="SVGID_55_" x="-7.623" y="-256.296" width="793.823" height="828.628"/>
					</defs>
					<clipPath id="SVGID_56_">
						<use xlink:href="#SVGID_55_"  overflow="visible"/>
					</clipPath>
					<path clip-path="url(#SVGID_56_)" d="M377.929,234.083c2.362-2.557-10.126-15.104-9.608-14.771c0,0-18.697,2.056-21.174,3.562
						c-2.479,1.508-8.096-3.32-6.889-10.693c1.208-7.371,2.088-7.371,2.556-8.278c1.606-3.124,23.959-7.323,71.462-5.799
						c0,0,19.574,2.986,3.078,10.418c0,0-19.669,3.179-24.104,6.08c-4.441,2.898-0.546,4.073,1.177,6.975
						c1.726,2.896,4.624,7.799,4.624,7.799s6.345,2.812,12.049,0.9c0,0,44.388-5.711,56.948,0.667c0,0,3.021,2.749,3.743,4.687
						c0.728,1.935-29.238,1.688-61.745,11.84c0,0-1.324,5.073,0.362,24.893c0,0,8.938,5.437,43.26-3.505
						c0,0,17.155-1.447,22.835,1.813c0,0,6.377,3.925-33.771,12.53c0,0-26.552,3.082-30.088,9.343
						c-3.539,6.247,1.271,19.213-9.426,32.804c-10.696,13.595-30.902,18.761-33.083,19.213c-2.175,0.45-19.516,4.349-23.891,2.263
						c-2.729-1.298-0.843-22.232-1.124-20.664c0,0,15.046,0.363,19.492-1.173c4.436-1.544,11.146-2.899,14.947-9.244
						c3.808-6.348,4.627-16.312,4.718-17.681c0.092-1.355-4.439-5.159-33.802,1.45c0,0-14.562,4.907-18.77,2.722
						c-2.463-1.281-4.629-14.75-4.708-16.496c0,0-5.437-3.533,49.03-7.157c0,0,9.246,2.988,5.072-19.488
						c0,0-12.322-1.449-53.829,4.623c0,0-2.085,2.266-2.902-21.115c0,0,3.354-3.534,19.578-2.538
						C343.943,240.065,372.853,239.565,377.929,234.083"/>
				</g>
			</g>
		</g>
	</g>
	<g>
		<g>
			<g>
				<g>
					<defs>
						<rect id="SVGID_57_" x="-7.623" y="-256.296" width="793.823" height="828.628"/>
					</defs>
					<clipPath id="SVGID_58_">
						<use xlink:href="#SVGID_57_"  overflow="visible"/>
					</clipPath>
					<path clip-path="url(#SVGID_58_)" d="M588.884,177.619h7.367c0.243,10.274,4.353,11.001,4.353,11.001
						c2.051,0,2.416-0.16,3.262-1.328c0.856-1.167,1.704-2.8,1.704-6.476l-0.617-34.032h8.459l1.3,33.437
						c0,3.768-0.323,6.666-0.99,8.693c-0.89,2.65-2.5,4.776-4.84,6.377c-2.339,1.604-5.444,2.227-9.242,1.789
						C585.993,195.511,588.884,177.619,588.884,177.619"/>
				</g>
			</g>
		</g>
	</g>
	<g>
		<g>
			<g>
				<g>
					<defs>
						<rect id="SVGID_59_" x="-7.623" y="-256.296" width="793.823" height="828.628"/>
					</defs>
					<clipPath id="SVGID_60_">
						<use xlink:href="#SVGID_59_"  overflow="visible"/>
					</clipPath>
					<path clip-path="url(#SVGID_60_)" d="M91.522,164.016h14.088c3.562,0,6.245,0.397,8.057,1.19
						c1.813,0.793,3.485,2.142,5.01,4.033c1.528,1.889,2.723,4.341,3.595,7.358c0.869,3.017,1.301,6.762,1.301,11.242
						c0,4.039-0.456,7.549-1.367,10.53c-0.911,2.982-2.064,5.348-3.467,7.085c-1.397,1.742-3.088,3.055-5.072,3.928
						c-1.98,0.885-4.53,1.322-7.645,1.322H91.519v-46.69L91.522,164.016L91.522,164.016z M99.224,171.919v30.899h5.792
						c2.483,0,4.285-0.237,5.393-0.701c1.116-0.466,2.026-1.169,2.74-2.117c0.709-0.94,1.296-2.432,1.765-4.469
						c0.467-2.034,0.697-4.723,0.697-8.05c0-3.455-0.234-6.183-0.712-8.177c-0.478-1.996-1.221-3.563-2.229-4.707
						c-1.01-1.15-2.236-1.898-3.678-2.259c-1.08-0.276-3.173-0.416-6.271-0.416L99.224,171.919L99.224,171.919z"/>
				</g>
			</g>
		</g>
	</g>
</g>
</svg>
